<svg xmlns="http://www.w3.org/2000/svg" viewBox="0 0 860 660" preserveAspectRatio="xMidYMid slice"><defs><linearGradient id="g" x1="0" y1="0" x2="1" y2="1"><stop offset="0" stop-color="#a8b6b4"/><stop offset="1" stop-color="#798685"/></linearGradient><linearGradient id="s" x1="0" y1="0" x2="1" y2="0"><stop offset="0" stop-color="#000" stop-opacity="0"/><stop offset="1" stop-color="#000" stop-opacity=".4"/></linearGradient></defs><rect width="860" height="660" fill="url(#g)"/><rect x="30" y="0" width="46" height="660" fill="#353f41" opacity="0.55"/><rect x="76" y="0" width="30" height="660" fill="#000" opacity=".12"/><rect x="150" y="0" width="46" height="660" fill="#353f41" opacity="0.60"/><rect x="196" y="0" width="30" height="660" fill="#000" opacity=".12"/><rect x="270" y="0" width="46" height="660" fill="#353f41" opacity="0.65"/><rect x="316" y="0" width="30" height="660" fill="#000" opacity=".12"/><rect x="390" y="0" width="46" height="660" fill="#353f41" opacity="0.55"/><rect x="436" y="0" width="30" height="660" fill="#000" opacity=".12"/><rect x="510" y="0" width="46" height="660" fill="#353f41" opacity="0.60"/><rect x="556" y="0" width="30" height="660" fill="#000" opacity=".12"/><rect x="630" y="0" width="46" height="660" fill="#353f41" opacity="0.65"/><rect x="676" y="0" width="30" height="660" fill="#000" opacity=".12"/><rect x="750" y="0" width="46" height="660" fill="#353f41" opacity="0.55"/><rect x="796" y="0" width="30" height="660" fill="#000" opacity=".12"/><rect y="590" width="860" height="70" fill="#2d3739"/></svg>