<svg xmlns="http://www.w3.org/2000/svg" viewBox="0 0 860 660" preserveAspectRatio="xMidYMid slice"><defs><linearGradient id="g" x1="0" y1="0" x2="1" y2="1"><stop offset="0" stop-color="#c3b6a1"/><stop offset="1" stop-color="#918675"/></linearGradient><linearGradient id="s" x1="0" y1="0" x2="1" y2="0"><stop offset="0" stop-color="#000" stop-opacity="0"/><stop offset="1" stop-color="#000" stop-opacity=".4"/></linearGradient></defs><rect width="860" height="660" fill="url(#g)"/><rect x="0" y="40" width="860" height="20" fill="#433b33" opacity=".9"/><rect x="0" y="60" width="860" height="48" fill="#fff" opacity="0.05"/><rect x="34" y="108" width="826" height="20" fill="#433b33" opacity=".9"/><rect x="34" y="128" width="826" height="48" fill="#fff" opacity="0.08"/><rect x="68" y="176" width="792" height="20" fill="#433b33" opacity=".9"/><rect x="68" y="196" width="792" height="48" fill="#fff" opacity="0.10"/><rect x="102" y="244" width="758" height="20" fill="#433b33" opacity=".9"/><rect x="102" y="264" width="758" height="48" fill="#fff" opacity="0.12"/><rect x="136" y="312" width="724" height="20" fill="#433b33" opacity=".9"/><rect x="136" y="332" width="724" height="48" fill="#fff" opacity="0.15"/><rect x="170" y="380" width="690" height="20" fill="#433b33" opacity=".9"/><rect x="170" y="400" width="690" height="48" fill="#fff" opacity="0.17"/><rect x="204" y="448" width="656" height="20" fill="#433b33" opacity=".9"/><rect x="204" y="468" width="656" height="48" fill="#fff" opacity="0.20"/><rect x="238" y="516" width="622" height="20" fill="#433b33" opacity=".9"/><rect x="238" y="536" width="622" height="48" fill="#fff" opacity="0.23"/><rect x="272" y="584" width="588" height="20" fill="#433b33" opacity=".9"/><rect x="272" y="604" width="588" height="48" fill="#fff" opacity="0.25"/></svg>